<svg class="border shadow-md" viewBox="0 0 957.44 538.5600000000001" xmlns="http://www.w3.org/2000/svg" preserveAspectRatio="none" style="width: 957.44px; height: 538.56px;"><rect class="bg" id="bg" x="0" y="0" width="957.44" height="538.5600000000001" fill="#A8A8A8"/><g transform="rotate(197 478.72 269.28000000000003)"><path d="M -319.15 338.56 S -169.57 328.56&#10;            0.00 338.56 127.15 277.56&#10;            319.15 338.56 410.29 169.56&#10;            638.29 338.56 787.87 320.56&#10;            957.44 338.56 1013.59 170.56&#10;            1276.59 338.56 h 110 V 1138.56 H -319.15 Z" fill="#27497C"/><path d="M -319.15 225.00 S -169.57 122.50&#10;            0.00 225.00 149.57 25.00&#10;            319.15 225.00 337.29 22.00&#10;            638.29 225.00 787.87 56.00&#10;            957.44 225.00 1107.01 98.00&#10;            1276.59 225.00 h 110 V -600 H -319.15 Z" fill="#404040"/></g></svg>