<svg class="border shadow-md" viewBox="0 0 1007.5022222222223 566.72" xmlns="http://www.w3.org/2000/svg" preserveAspectRatio="none" style="width: 1007.5px; height: 566.72px;"><rect class="bg" id="bg" x="0" y="0" width="1007.5022222222223" height="566.72" fill="#ffffff"/><path d="M 0 -141.68 L 0 -141.68&#10;                L 46.00 -16.68&#10;                L 125.93777777777778 -141.68 L 125.93777777777778 -141.68&#10;                L 174.94 -70.84&#10;                L 251.87555555555556 -141.68 L 251.87555555555556 -141.68&#10;                L 306.88 -32.68&#10;                L 377.81333333333333 -141.68 L 377.81333333333333 -141.68&#10;                L 419.79 -70.84&#10;                L 503.75111111111113 -141.68 L 503.75111111111113 -141.68&#10;                L 545.73 -70.84&#10;                L 629.6888888888889 -141.68 L 629.6888888888889 -141.68&#10;                L 674.69 -70.84&#10;                L 755.6266666666667 -141.68 L 755.6266666666667 -141.68&#10;                L 800.63 -70.84&#10;                L 881.5644444444445 -141.68 L 881.5644444444445 -141.68&#10;                L 936.56 -70.84&#10;                L 1007.5022222222223 -141.68 L 1007.5022222222223 -141.68&#10;                L 1054.50 -56.68&#10;                L 1133.44 -141.68  V 566.72 H 0 V -141.68 Z" fill="#27497C"/><path d="M 0 0 L 0 0.00&#10;                L 41.98 70.84&#10;                L 125.93777777777778 0.00 L 125.93777777777778 0.00&#10;                L 182.94 82.00&#10;                L 251.87555555555556 0.00 L 251.87555555555556 0.00&#10;                L 293.85 70.84&#10;                L 377.81333333333333 0.00 L 377.81333333333333 0.00&#10;                L 419.79 70.84&#10;                L 503.75111111111113 0.00 L 503.75111111111113 0.00&#10;                L 545.73 70.84&#10;                L 629.6888888888889 0.00 L 629.6888888888889 0.00&#10;                L 671.67 70.84&#10;                L 755.6266666666667 0.00 L 755.6266666666667 0.00&#10;                L 847.63 70.84&#10;                L 881.5644444444445 0.00 L 881.5644444444445 0.00&#10;                L 923.54 70.84&#10;                L 1007.5022222222223 0.00 L 1007.5022222222223 0.00&#10;                L 1095.50 70.84&#10;                L 1133.44 0.00  V 566.72 H 0 V 0.00 Z" fill="#405c84"/><path d="M 0 141.68 L 0 141.68&#10;                L 41.98 212.52&#10;                L 125.93777777777778 141.68 L 125.93777777777778 141.68&#10;                L 167.92 212.52&#10;                L 251.87555555555556 141.68 L 251.87555555555556 141.68&#10;                L 338.88 224.68&#10;                L 377.81333333333333 141.68 L 377.81333333333333 141.68&#10;                L 466.81 254.68&#10;                L 503.75111111111113 141.68 L 503.75111111111113 141.68&#10;                L 588.75 212.52&#10;                L 629.6888888888889 141.68 L 629.6888888888889 141.68&#10;                L 679.69 212.52&#10;                L 755.6266666666667 141.68 L 755.6266666666667 141.68&#10;                L 797.61 212.52&#10;                L 881.5644444444445 141.68 L 881.5644444444445 141.68&#10;                L 924.56 212.52&#10;                L 1007.5022222222223 141.68 L 1007.5022222222223 141.68&#10;                L 1061.50 212.68&#10;                L 1133.44 141.68  V 566.72 H 0 V 141.68 Z" fill="#596f8c"/><path d="M 0 283.36 L 0 283.36&#10;                L 72.00 354.20&#10;                L 125.93777777777778 283.36 L 125.93777777777778 283.36&#10;                L 216.94 415.36&#10;                L 251.87555555555556 283.36 L 251.87555555555556 283.36&#10;                L 293.85 354.20&#10;                L 377.81333333333333 283.36 L 377.81333333333333 283.36&#10;                L 431.81 387.36&#10;                L 503.75111111111113 283.36 L 503.75111111111113 283.36&#10;                L 563.75 401.36&#10;                L 629.6888888888889 283.36 L 629.6888888888889 283.36&#10;                L 671.67 354.20&#10;                L 755.6266666666667 283.36 L 755.6266666666667 283.36&#10;                L 797.61 422.36&#10;                L 881.5644444444445 283.36 L 881.5644444444445 283.36&#10;                L 938.56 375.36&#10;                L 1007.5022222222223 283.36 L 1007.5022222222223 283.36&#10;                L 1049.48 365.36&#10;                L 1133.44 283.36  V 566.72 H 0 V 283.36 Z" fill="#728294"/><path d="M 0 425.04 L 0 425.04&#10;                L 41.98 495.88&#10;                L 125.93777777777778 425.04 L 125.93777777777778 425.04&#10;                L 167.92 495.88&#10;                L 251.87555555555556 425.04 L 251.87555555555556 425.04&#10;                L 326.88 495.88&#10;                L 377.81333333333333 425.04 L 377.81333333333333 425.04&#10;                L 419.79 495.88&#10;                L 503.75111111111113 425.04 L 503.75111111111113 425.04&#10;                L 545.73 530.04&#10;                L 629.6888888888889 425.04 L 629.6888888888889 425.04&#10;                L 703.69 495.88&#10;                L 755.6266666666667 425.04 L 755.6266666666667 425.04&#10;                L 842.63 495.88&#10;                L 881.5644444444445 425.04 L 881.5644444444445 425.04&#10;                L 923.54 495.88&#10;                L 1007.5022222222223 425.04 L 1007.5022222222223 425.04&#10;                L 1049.48 495.88&#10;                L 1133.44 425.04  V 566.72 H 0 V 425.04 Z" fill="#8b959c"/></svg>